<?xml version="1.0" encoding="UTF-8" standalone="no"?><!DOCTYPE svg PUBLIC "-//W3C//DTD SVG 1.1//EN" "http://www.w3.org/Graphics/SVG/1.1/DTD/svg11.dtd"><svg width="100%" height="100%" viewBox="0 0 1000 500" version="1.1" xmlns="http://www.w3.org/2000/svg" xmlns:xlink="http://www.w3.org/1999/xlink" xml:space="preserve" xmlns:serif="http://www.serif.com/" style="fill-rule:evenodd;clip-rule:evenodd;stroke-linejoin:round;stroke-miterlimit:2;"><g><path d="M1001,170.25l0,174.5c0,48.155 -39.095,87.25 -87.25,87.25l-796.5,0c-48.155,0 -87.25,-39.095 -87.25,-87.25l0,-174.5c0,-48.155 39.095,-87.25 87.25,-87.25l796.5,0c48.155,0 87.25,39.095 87.25,87.25Z" style="fill:#fff;"/><path d="M253.901,191.062c0,0.553 -0.867,0.967 -2.601,1.244c-1.446,0.276 -2.313,0 -2.601,-0.829c-4.626,-16.033 -12.431,-27.919 -23.417,-35.659c-10.986,-7.74 -25.44,-11.61 -43.363,-11.61l-13.009,0c-8.673,0 -15.033,1.797 -19.08,5.39c-4.047,3.593 -6.071,9.122 -6.071,16.585l0,89.561l31.222,0c16.767,0 29.487,-2.764 38.16,-8.292c8.961,-5.805 13.442,-13.683 13.442,-23.634c0,-0.553 0.867,-0.829 2.603,-0.829c1.734,0 2.601,0.276 2.601,0.829l-0.434,37.732c0,8.846 0.144,15.48 0.434,19.902l0.434,21.977c0,0.829 -0.867,1.243 -2.601,1.243c-1.736,0 -2.603,-0.414 -2.603,-1.243c0,-11.057 -4.626,-19.765 -13.876,-26.123c-8.963,-6.634 -21.827,-9.951 -38.594,-9.951l-30.788,0l0,88.732c0,8.569 1.156,14.926 3.469,19.073c2.313,4.146 6.649,7.048 13.009,8.707c6.36,1.66 16.334,2.489 29.921,2.489c0.578,0 0.867,0.829 0.867,2.487c0,1.658 -0.289,2.487 -0.867,2.487c-11.853,0 -21.104,-0.138 -27.753,-0.414l-44.231,-0.415l-32.523,0.415c-5.782,0.276 -13.732,0.414 -23.85,0.414c-0.867,0 -1.301,-0.829 -1.301,-2.487c0,-1.658 0.434,-2.487 1.301,-2.487c10.118,0 17.49,-0.691 22.115,-2.074c4.625,-1.382 7.661,-4.008 9.106,-7.877c1.735,-4.147 2.602,-10.366 2.602,-18.659l0,-191.977c0,-8.293 -0.723,-14.374 -2.168,-18.244c-1.445,-3.87 -4.336,-6.496 -8.673,-7.878c-4.336,-1.659 -10.985,-2.488 -19.947,-2.488c-0.867,0 -1.301,-0.829 -1.301,-2.488c0,-1.659 0.434,-2.488 1.301,-2.488l183.862,0c2.89,0 4.336,1.244 4.336,3.732l0.867,55.147Z" style="fill:#1d2f30;fill-rule:nonzero;"/><path d="M659.687,233.77c7.227,0 10.841,4.285 10.841,12.854c0,6.911 -2.023,13.682 -6.07,20.317c-3.759,6.359 -8.963,11.611 -15.611,15.756c-6.649,4.147 -13.732,6.219 -21.248,6.219c-8.096,0 -18.503,-2.903 -31.223,-8.707c-5.203,37.87 -18.501,66.756 -39.894,86.659c-21.104,19.626 -47.411,29.439 -78.922,29.439c-19.658,0 -37.293,-4.423 -52.904,-13.269c-15.321,-9.122 -27.319,-21.146 -35.992,-36.074c-8.673,-14.926 -13.008,-31.097 -13.008,-48.512c0,-7.464 0.867,-14.927 2.601,-22.391c3.47,-14.65 10.118,-27.918 19.947,-39.805c9.83,-11.886 21.393,-21.146 34.691,-27.781c13.298,-6.634 26.742,-9.951 40.329,-9.951c14.454,0 26.307,3.87 35.558,11.61c17.344,-18.52 26.017,-34.691 26.017,-48.513c0,-5.252 -0.867,-9.26 -2.601,-12.024c-1.734,-3.041 -4.192,-5.805 -7.372,-8.293c-2.313,-2.211 -4.047,-4.146 -5.203,-5.805c-1.157,-1.659 -1.734,-4.008 -1.734,-7.049c0,-4.146 1.301,-7.463 3.902,-9.951c2.601,-2.488 5.926,-3.732 9.974,-3.732c6.36,0 11.564,2.764 15.611,8.293c4.047,5.528 6.071,12.854 6.071,21.976c0,15.48 -6.071,31.236 -18.213,47.269c-12.143,16.033 -26.742,31.098 -43.798,45.195c-17.057,13.821 -38.45,29.992 -64.178,48.512l-25.151,18.659c2.89,14.927 8.816,28.196 17.779,39.805c8.961,11.333 19.658,20.179 32.088,26.536c12.72,6.081 26.018,9.123 39.895,9.123c26.307,0 48.133,-8.846 65.479,-26.538c17.634,-17.69 28.331,-43.122 32.088,-76.293l-8.238,-4.147c-12.143,-6.081 -21.828,-10.504 -29.055,-13.267c-7.227,-3.041 -14.166,-4.561 -20.814,-4.561c-4.047,0 -7.372,0.83 -9.974,2.488c-2.313,1.658 -3.469,3.732 -3.469,6.219c0,3.318 1.156,7.188 3.469,11.611c2.313,4.975 3.469,8.569 3.469,10.78c0,2.487 -0.867,4.837 -2.601,7.048c-1.734,1.936 -4.336,2.903 -7.806,2.903c-3.469,0 -6.36,-0.967 -8.673,-2.903c-2.023,-2.211 -3.035,-5.666 -3.035,-10.365c0,-7.188 2.313,-14.098 6.939,-20.732c4.914,-6.634 11.129,-11.886 18.646,-15.756c7.806,-4.146 15.755,-6.22 23.849,-6.22c7.227,0 14.599,1.52 22.116,4.561c7.806,2.764 17.346,6.911 28.62,12.438c9.251,4.7 17.201,8.432 23.851,11.195c6.649,2.489 12.72,3.732 18.213,3.732c3.757,0 6.794,-0.691 9.106,-2.072c2.601,-1.66 3.902,-3.594 3.902,-5.805c0,-2.487 -1.446,-5.667 -4.337,-9.537c-1.734,-2.211 -3.035,-4.146 -3.902,-5.805c-0.867,-1.659 -1.301,-3.594 -1.301,-5.805c0,-6.358 3.759,-9.537 11.274,-9.537Zm-257.58,29.025c-1.446,8.845 -2.168,16.308 -2.168,22.389c0,3.041 0.289,7.326 0.867,12.854c7.806,-6.081 15.9,-12.162 24.283,-18.244c26.308,-19.349 46.834,-35.382 61.577,-48.098c-7.227,-14.65 -19.08,-21.976 -35.558,-21.976c-11.274,0 -21.393,5.114 -30.354,15.342c-8.673,9.951 -14.888,22.529 -18.646,37.732Z" style="fill:#1d2f30;fill-rule:nonzero;"/><path d="M896.144,245.795c24.284,2.764 43.509,10.504 57.675,23.22c14.454,12.716 21.681,28.472 21.681,47.269c0,14.374 -4.337,27.366 -13.008,38.975c-8.673,11.611 -20.671,20.87 -35.992,27.781c-15.323,6.634 -32.378,9.952 -51.17,9.952c-8.094,0 -17.346,-0.415 -27.753,-1.244c-4.047,-0.276 -9.106,-0.553 -15.178,-0.829c-5.781,-0.277 -12.286,-0.415 -19.513,-0.415l-31.655,0.415c-5.783,0.276 -13.588,0.414 -23.417,0.414c-0.867,0 -1.301,-0.829 -1.301,-2.487c0,-1.658 0.434,-2.487 1.301,-2.487c8.384,0 14.744,-0.691 19.08,-2.074c4.337,-1.658 7.372,-4.423 9.106,-8.293c2.024,-4.146 3.035,-10.228 3.035,-18.244l0,-191.977c0,-11.61 -2.023,-19.212 -6.07,-22.805c-4.047,-3.87 -12.286,-5.805 -24.718,-5.805c-0.579,0 -0.867,-0.829 -0.867,-2.488c0,-1.659 0.289,-2.488 0.867,-2.488l22.983,0.415c13.297,0.553 23.849,0.829 31.655,0.829c8.094,0 16.478,-0.415 25.151,-1.244c2.891,-0.276 7.227,-0.553 13.008,-0.829c5.783,-0.276 10.841,-0.415 15.178,-0.415c26.307,0 46.688,4.561 61.143,13.683c14.454,9.122 21.681,22.39 21.681,39.805c0,13.268 -4.626,25.293 -13.876,36.074c-8.963,10.781 -21.971,19.211 -39.028,25.293Zm-36.425,-105.732c-8.383,0 -14.166,1.935 -17.346,5.805c-3.18,3.594 -4.769,10.504 -4.769,20.732l0,78.781l17.346,0.415c15.033,0 26.596,-5.39 34.691,-16.171c8.094,-10.781 12.141,-24.602 12.141,-41.464c0,-15.756 -3.614,-27.642 -10.841,-35.659c-7.227,-8.293 -17.636,-12.439 -31.223,-12.439Zm8.239,242.563c37.871,0 56.806,-18.797 56.806,-56.391c0,-21.284 -5.348,-38.147 -16.043,-50.585c-10.697,-12.44 -26.886,-18.659 -48.568,-18.659c-8.383,0 -15.9,0.276 -22.548,0.829l0,99.928c0,9.122 1.879,15.618 5.636,19.488c3.759,3.592 11.998,5.39 24.718,5.39Z" style="fill:#1d2f30;fill-rule:nonzero;"/></g></svg>