<?xml version="1.0" encoding="UTF-8" standalone="no"?><!DOCTYPE svg PUBLIC "-//W3C//DTD SVG 1.1//EN" "http://www.w3.org/Graphics/SVG/1.1/DTD/svg11.dtd"><svg width="100%" height="100%" viewBox="0 0 65 20" version="1.1" xmlns="http://www.w3.org/2000/svg" xmlns:xlink="http://www.w3.org/1999/xlink" xml:space="preserve" xmlns:serif="http://www.serif.com/" style="fill-rule:evenodd;clip-rule:evenodd;stroke-linejoin:round;stroke-miterlimit:2;"><path d="M13.739,5.42c0,0.039 -0.062,0.069 -0.185,0.088c-0.103,0.02 -0.164,0 -0.185,-0.059c-0.329,-1.139 -0.883,-1.983 -1.664,-2.533c-0.78,-0.55 -1.807,-0.825 -3.08,-0.825l-0.924,0c-0.616,0 -1.068,0.128 -1.355,0.383c-0.288,0.255 -0.431,0.648 -0.431,1.178l0,6.362l2.218,0c1.191,0 2.095,-0.196 2.711,-0.589c0.637,-0.412 0.955,-0.972 0.955,-1.679c0,-0.039 0.062,-0.059 0.185,-0.059c0.123,0 0.185,0.02 0.185,0.059l-0.031,2.68c0,0.628 0.01,1.1 0.031,1.414l0.031,1.561c0,0.059 -0.062,0.088 -0.185,0.088c-0.123,0 -0.185,-0.029 -0.185,-0.088c0,-0.786 -0.329,-1.404 -0.986,-1.856c-0.637,-0.471 -1.551,-0.707 -2.742,-0.707l-2.187,0l0,6.303c0,0.609 0.082,1.06 0.246,1.355c0.164,0.294 0.472,0.501 0.924,0.618c0.452,0.118 1.16,0.177 2.126,0.177c0.041,0 0.062,0.059 0.062,0.177c0,0.118 -0.021,0.177 -0.062,0.177c-0.842,0 -1.499,-0.01 -1.972,-0.029l-3.142,-0.03l-2.31,0.03c-0.411,0.02 -0.975,0.029 -1.694,0.029c-0.062,0 -0.092,-0.059 -0.092,-0.177c0,-0.118 0.031,-0.177 0.092,-0.177c0.719,0 1.242,-0.049 1.571,-0.147c0.329,-0.098 0.544,-0.285 0.647,-0.56c0.123,-0.295 0.185,-0.736 0.185,-1.326l0,-13.638c0,-0.589 -0.051,-1.021 -0.154,-1.296c-0.103,-0.275 -0.308,-0.461 -0.616,-0.56c-0.308,-0.118 -0.78,-0.177 -1.417,-0.177c-0.062,0 -0.092,-0.059 -0.092,-0.177c0,-0.118 0.031,-0.177 0.092,-0.177l13.061,0c0.205,0 0.308,0.088 0.308,0.265l0.062,3.918Z" style="fill:#fff;fill-rule:nonzero;"/><path d="M42.565,8.454c0.513,0 0.77,0.304 0.77,0.913c0,0.491 -0.144,0.972 -0.431,1.443c-0.267,0.452 -0.637,0.825 -1.109,1.119c-0.472,0.295 -0.975,0.442 -1.509,0.442c-0.575,0 -1.314,-0.206 -2.218,-0.619c-0.37,2.69 -1.314,4.742 -2.834,6.156c-1.499,1.394 -3.368,2.091 -5.607,2.091c-1.396,0 -2.649,-0.314 -3.758,-0.943c-1.088,-0.648 -1.941,-1.502 -2.557,-2.563c-0.616,-1.06 -0.924,-2.209 -0.924,-3.446c0,-0.53 0.062,-1.06 0.185,-1.591c0.247,-1.041 0.719,-1.983 1.417,-2.828c0.698,-0.844 1.52,-1.502 2.464,-1.973c0.945,-0.471 1.9,-0.707 2.865,-0.707c1.027,0 1.869,0.275 2.526,0.825c1.232,-1.316 1.848,-2.464 1.848,-3.446c0,-0.373 -0.062,-0.658 -0.185,-0.854c-0.123,-0.216 -0.298,-0.412 -0.524,-0.589c-0.164,-0.157 -0.288,-0.295 -0.37,-0.412c-0.082,-0.118 -0.123,-0.285 -0.123,-0.501c0,-0.295 0.092,-0.53 0.277,-0.707c0.185,-0.177 0.421,-0.265 0.709,-0.265c0.452,0 0.822,0.196 1.109,0.589c0.288,0.393 0.431,0.913 0.431,1.561c0,1.1 -0.431,2.219 -1.294,3.358c-0.863,1.139 -1.9,2.209 -3.111,3.211c-1.212,0.982 -2.731,2.131 -4.559,3.446l-1.787,1.325c0.205,1.06 0.626,2.003 1.263,2.828c0.637,0.805 1.396,1.433 2.279,1.885c0.904,0.432 1.848,0.648 2.834,0.648c1.869,0 3.419,-0.628 4.651,-1.885c1.253,-1.257 2.013,-3.063 2.28,-5.42l-0.585,-0.295c-0.863,-0.432 -1.551,-0.746 -2.064,-0.942c-0.513,-0.216 -1.006,-0.324 -1.479,-0.324c-0.288,0 -0.524,0.059 -0.709,0.177c-0.164,0.118 -0.246,0.265 -0.246,0.442c0,0.236 0.082,0.511 0.246,0.825c0.164,0.353 0.246,0.609 0.246,0.766c0,0.177 -0.062,0.344 -0.185,0.501c-0.123,0.137 -0.308,0.206 -0.554,0.206c-0.246,0 -0.452,-0.069 -0.616,-0.206c-0.144,-0.157 -0.216,-0.402 -0.216,-0.736c0,-0.511 0.164,-1.002 0.493,-1.473c0.349,-0.471 0.791,-0.844 1.325,-1.119c0.554,-0.295 1.119,-0.442 1.694,-0.442c0.513,0 1.037,0.108 1.571,0.324c0.555,0.196 1.232,0.491 2.033,0.884c0.657,0.334 1.222,0.599 1.694,0.795c0.472,0.177 0.904,0.265 1.294,0.265c0.267,0 0.483,-0.049 0.647,-0.147c0.185,-0.118 0.277,-0.255 0.277,-0.412c0,-0.177 -0.103,-0.403 -0.308,-0.677c-0.123,-0.157 -0.216,-0.295 -0.277,-0.412c-0.062,-0.118 -0.092,-0.255 -0.092,-0.412c0,-0.452 0.267,-0.677 0.801,-0.677Zm-18.298,2.062c-0.103,0.628 -0.154,1.159 -0.154,1.591c0,0.216 0.021,0.52 0.062,0.913c0.554,-0.432 1.13,-0.864 1.725,-1.296c1.869,-1.375 3.327,-2.513 4.374,-3.417c-0.513,-1.041 -1.355,-1.561 -2.526,-1.561c-0.801,0 -1.52,0.363 -2.156,1.09c-0.616,0.707 -1.058,1.6 -1.325,2.68Z" style="fill:#fff;fill-rule:nonzero;"/><path d="M59.363,9.308c1.725,0.196 3.091,0.746 4.097,1.649c1.027,0.903 1.54,2.023 1.54,3.358c0,1.021 -0.308,1.944 -0.924,2.769c-0.616,0.825 -1.468,1.483 -2.557,1.974c-1.089,0.471 -2.3,0.707 -3.635,0.707c-0.575,0 -1.232,-0.029 -1.971,-0.088c-0.287,-0.02 -0.647,-0.039 -1.078,-0.059c-0.411,-0.02 -0.873,-0.03 -1.386,-0.03l-2.249,0.03c-0.411,0.02 -0.965,0.029 -1.663,0.029c-0.062,0 -0.092,-0.059 -0.092,-0.177c0,-0.118 0.031,-0.177 0.092,-0.177c0.596,0 1.047,-0.049 1.355,-0.147c0.308,-0.118 0.524,-0.314 0.647,-0.589c0.144,-0.294 0.216,-0.727 0.216,-1.296l0,-13.638c0,-0.825 -0.144,-1.365 -0.431,-1.62c-0.287,-0.275 -0.873,-0.412 -1.756,-0.412c-0.041,0 -0.062,-0.059 -0.062,-0.177c0,-0.118 0.02,-0.177 0.062,-0.177l1.633,0.029c0.945,0.039 1.694,0.059 2.249,0.059c0.575,0 1.171,-0.029 1.787,-0.088c0.205,-0.02 0.513,-0.039 0.924,-0.059c0.411,-0.02 0.77,-0.029 1.078,-0.029c1.869,0 3.317,0.324 4.343,0.972c1.027,0.648 1.54,1.591 1.54,2.828c0,0.943 -0.329,1.797 -0.986,2.563c-0.637,0.766 -1.561,1.365 -2.773,1.797Zm-2.588,-7.511c-0.596,0 -1.006,0.137 -1.232,0.412c-0.226,0.255 -0.339,0.746 -0.339,1.473l0,5.596l1.232,0.029c1.068,0 1.889,-0.383 2.464,-1.149c0.575,-0.766 0.862,-1.748 0.862,-2.946c0,-1.119 -0.257,-1.964 -0.77,-2.533c-0.513,-0.589 -1.253,-0.884 -2.218,-0.884Zm0.585,17.231c2.69,0 4.035,-1.335 4.035,-4.006c0,-1.512 -0.38,-2.71 -1.14,-3.594c-0.76,-0.884 -1.91,-1.325 -3.45,-1.325c-0.596,0 -1.13,0.02 -1.602,0.059l0,7.099c0,0.648 0.134,1.11 0.4,1.384c0.267,0.255 0.852,0.383 1.756,0.383Z" style="fill:#fff;fill-rule:nonzero;"/></svg>